<?xml version="1.0" encoding="UTF-8" standalone="no"?>
<!DOCTYPE svg PUBLIC "-//W3C//DTD SVG 1.1//EN"
 "http://www.w3.org/Graphics/SVG/1.1/DTD/svg11.dtd">
<!-- Generated by graphviz version 2.42.3 (20191010.1750)
 -->
<!-- Title: states Pages: 1 -->
<svg width="669pt" height="761pt"
 viewBox="0.00 0.00 668.99 760.97" xmlns="http://www.w3.org/2000/svg" xmlns:xlink="http://www.w3.org/1999/xlink">
<g id="graph0" class="graph" transform="scale(1 1) rotate(0) translate(4 756.97)">
<title>states</title>
<polygon fill="white" stroke="transparent" points="-4,4 -4,-756.97 664.99,-756.97 664.99,4 -4,4"/>
<!-- Alabama -->
<g id="node1" class="node">
<title>Alabama</title>
<ellipse fill="none" stroke="black" cx="506.94" cy="-174.56" rx="42.05" ry="18"/>
<text text-anchor="middle" x="506.94" y="-170.36" font-family="Times,serif" font-size="14.00">Alabama</text>
</g>
<!-- Mississippi -->
<g id="node2" class="node">
<title>Mississippi</title>
<ellipse fill="none" stroke="black" cx="458.93" cy="-157.89" rx="50.32" ry="18"/>
<text text-anchor="middle" x="458.93" y="-153.69" font-family="Times,serif" font-size="14.00">Mississippi</text>
</g>
<!-- Alabama&#45;&#45;Mississippi -->
<g id="edge1" class="edge">
<title>Alabama&#45;&#45;Mississippi</title>
<path fill="none" stroke="black" d="M474.12,-163.16C473.99,-163.12 473.86,-163.07 473.73,-163.03"/>
</g>
<!-- Tennessee -->
<g id="node3" class="node">
<title>Tennessee</title>
<ellipse fill="none" stroke="black" cx="443.88" cy="-236.35" rx="46.14" ry="18"/>
<text text-anchor="middle" x="443.88" y="-232.15" font-family="Times,serif" font-size="14.00">Tennessee</text>
</g>
<!-- Alabama&#45;&#45;Tennessee -->
<g id="edge2" class="edge">
<title>Alabama&#45;&#45;Tennessee</title>
<path fill="none" stroke="black" d="M490.04,-191.12C481.14,-199.84 470.24,-210.52 461.27,-219.31"/>
</g>
<!-- Florida -->
<g id="node4" class="node">
<title>Florida</title>
<ellipse fill="none" stroke="black" cx="579.05" cy="-143.63" rx="35.81" ry="18"/>
<text text-anchor="middle" x="579.05" y="-139.43" font-family="Times,serif" font-size="14.00">Florida</text>
</g>
<!-- Alabama&#45;&#45;Florida -->
<g id="edge3" class="edge">
<title>Alabama&#45;&#45;Florida</title>
<path fill="none" stroke="black" d="M536.69,-161.8C541.65,-159.67 546.79,-157.47 551.69,-155.37"/>
</g>
<!-- Georgia -->
<g id="node5" class="node">
<title>Georgia</title>
<ellipse fill="none" stroke="black" cx="530.62" cy="-211.1" rx="38.37" ry="18"/>
<text text-anchor="middle" x="530.62" y="-206.9" font-family="Times,serif" font-size="14.00">Georgia</text>
</g>
<!-- Alabama&#45;&#45;Georgia -->
<g id="edge4" class="edge">
<title>Alabama&#45;&#45;Georgia</title>
<path fill="none" stroke="black" d="M518.22,-191.97C518.6,-192.56 518.99,-193.15 519.37,-193.74"/>
</g>
<!-- Mississippi&#45;&#45;Tennessee -->
<g id="edge78" class="edge">
<title>Mississippi&#45;&#45;Tennessee</title>
<path fill="none" stroke="black" d="M455.44,-176.09C453.01,-188.76 449.78,-205.6 447.35,-218.25"/>
</g>
<!-- Virginia -->
<g id="node45" class="node">
<title>Virginia</title>
<ellipse fill="none" stroke="black" cx="477.62" cy="-312.22" rx="38.79" ry="18"/>
<text text-anchor="middle" x="477.62" y="-308.02" font-family="Times,serif" font-size="14.00">Virginia</text>
</g>
<!-- Tennessee&#45;&#45;Virginia -->
<g id="edge108" class="edge">
<title>Tennessee&#45;&#45;Virginia</title>
<path fill="none" stroke="black" d="M451.88,-254.33C457.26,-266.42 464.31,-282.3 469.68,-294.37"/>
</g>
<!-- Florida&#45;&#45;Georgia -->
<g id="edge30" class="edge">
<title>Florida&#45;&#45;Georgia</title>
<path fill="none" stroke="black" d="M566.83,-160.66C559.54,-170.81 550.32,-183.66 543,-193.85"/>
</g>
<!-- Georgia&#45;&#45;Tennessee -->
<g id="edge33" class="edge">
<title>Georgia&#45;&#45;Tennessee</title>
<path fill="none" stroke="black" d="M497.83,-220.65C492.36,-222.24 486.65,-223.9 481.08,-225.52"/>
</g>
<!-- NorthCarolina -->
<g id="node30" class="node">
<title>NorthCarolina</title>
<ellipse fill="none" stroke="black" cx="519.54" cy="-262.86" rx="61.38" ry="18"/>
<text text-anchor="middle" x="519.54" y="-258.66" font-family="Times,serif" font-size="14.00">NorthCarolina</text>
</g>
<!-- Georgia&#45;&#45;NorthCarolina -->
<g id="edge31" class="edge">
<title>Georgia&#45;&#45;NorthCarolina</title>
<path fill="none" stroke="black" d="M526.74,-229.21C525.67,-234.22 524.5,-239.66 523.43,-244.68"/>
</g>
<!-- SouthCarolina -->
<g id="node31" class="node">
<title>SouthCarolina</title>
<ellipse fill="none" stroke="black" cx="599.79" cy="-239.99" rx="61.4" ry="18"/>
<text text-anchor="middle" x="599.79" y="-235.79" font-family="Times,serif" font-size="14.00">SouthCarolina</text>
</g>
<!-- Georgia&#45;&#45;SouthCarolina -->
<g id="edge32" class="edge">
<title>Georgia&#45;&#45;SouthCarolina</title>
<path fill="none" stroke="black" d="M559.55,-223.19C561.18,-223.87 562.83,-224.55 564.48,-225.24"/>
</g>
<!-- Alaska -->
<g id="node6" class="node">
<title>Alaska</title>
<ellipse fill="none" stroke="black" cx="304.66" cy="-513" rx="34.83" ry="18"/>
<text text-anchor="middle" x="304.66" y="-508.8" font-family="Times,serif" font-size="14.00">Alaska</text>
</g>
<!-- Arizona -->
<g id="node7" class="node">
<title>Arizona</title>
<ellipse fill="none" stroke="black" cx="221.25" cy="-60.07" rx="38.68" ry="18"/>
<text text-anchor="middle" x="221.25" y="-55.87" font-family="Times,serif" font-size="14.00">Arizona</text>
</g>
<!-- Nevada -->
<g id="node8" class="node">
<title>Nevada</title>
<ellipse fill="none" stroke="black" cx="142.08" cy="-72.41" rx="37.22" ry="18"/>
<text text-anchor="middle" x="142.08" y="-68.21" font-family="Times,serif" font-size="14.00">Nevada</text>
</g>
<!-- Arizona&#45;&#45;Nevada -->
<g id="edge5" class="edge">
<title>Arizona&#45;&#45;Nevada</title>
<path fill="none" stroke="black" d="M184.45,-65.8C182.19,-66.16 179.91,-66.51 177.66,-66.86"/>
</g>
<!-- NewMexico -->
<g id="node9" class="node">
<title>NewMexico</title>
<ellipse fill="none" stroke="black" cx="283.48" cy="-90.45" rx="53.64" ry="18"/>
<text text-anchor="middle" x="283.48" y="-86.25" font-family="Times,serif" font-size="14.00">NewMexico</text>
</g>
<!-- Arizona&#45;&#45;NewMexico -->
<g id="edge6" class="edge">
<title>Arizona&#45;&#45;NewMexico</title>
<path fill="none" stroke="black" d="M248,-73.13C249.58,-73.9 251.18,-74.68 252.78,-75.46"/>
</g>
<!-- Utah -->
<g id="node10" class="node">
<title>Utah</title>
<ellipse fill="none" stroke="black" cx="197.19" cy="-114.95" rx="27.1" ry="18"/>
<text text-anchor="middle" x="197.19" y="-110.75" font-family="Times,serif" font-size="14.00">Utah</text>
</g>
<!-- Arizona&#45;&#45;Utah -->
<g id="edge7" class="edge">
<title>Arizona&#45;&#45;Utah</title>
<path fill="none" stroke="black" d="M213.51,-77.73C210.76,-84 207.67,-91.05 204.92,-97.31"/>
</g>
<!-- California -->
<g id="node11" class="node">
<title>California</title>
<ellipse fill="none" stroke="black" cx="150.09" cy="-18" rx="45.92" ry="18"/>
<text text-anchor="middle" x="150.09" y="-13.8" font-family="Times,serif" font-size="14.00">California</text>
</g>
<!-- Arizona&#45;&#45;California -->
<g id="edge8" class="edge">
<title>Arizona&#45;&#45;California</title>
<path fill="none" stroke="black" d="M197.16,-45.82C190.23,-41.72 182.64,-37.24 175.62,-33.09"/>
</g>
<!-- Colorado -->
<g id="node12" class="node">
<title>Colorado</title>
<ellipse fill="none" stroke="black" cx="253.6" cy="-143" rx="43.04" ry="18"/>
<text text-anchor="middle" x="253.6" y="-138.8" font-family="Times,serif" font-size="14.00">Colorado</text>
</g>
<!-- Arizona&#45;&#45;Colorado -->
<g id="edge9" class="edge">
<title>Arizona&#45;&#45;Colorado</title>
<path fill="none" stroke="black" d="M228.27,-78.06C233.7,-91.97 241.17,-111.14 246.59,-125.04"/>
</g>
<!-- Nevada&#45;&#45;Utah -->
<g id="edge88" class="edge">
<title>Nevada&#45;&#45;Utah</title>
<path fill="none" stroke="black" d="M161.98,-87.77C167.65,-92.15 173.79,-96.89 179.34,-101.17"/>
</g>
<!-- Oregon -->
<g id="node18" class="node">
<title>Oregon</title>
<ellipse fill="none" stroke="black" cx="84.7" cy="-82.52" rx="36.76" ry="18"/>
<text text-anchor="middle" x="84.7" y="-78.32" font-family="Times,serif" font-size="14.00">Oregon</text>
</g>
<!-- Nevada&#45;&#45;Oregon -->
<g id="edge87" class="edge">
<title>Nevada&#45;&#45;Oregon</title>
<path fill="none" stroke="black" d="M107.05,-78.58C106.96,-78.6 106.87,-78.61 106.77,-78.63"/>
</g>
<!-- NewMexico&#45;&#45;Utah -->
<g id="edge94" class="edge">
<title>NewMexico&#45;&#45;Utah</title>
<path fill="none" stroke="black" d="M242.36,-102.13C235.58,-104.05 228.75,-105.99 222.51,-107.76"/>
</g>
<!-- Oklahoma -->
<g id="node14" class="node">
<title>Oklahoma</title>
<ellipse fill="none" stroke="black" cx="334.46" cy="-154.45" rx="46.89" ry="18"/>
<text text-anchor="middle" x="334.46" y="-150.25" font-family="Times,serif" font-size="14.00">Oklahoma</text>
</g>
<!-- NewMexico&#45;&#45;Oklahoma -->
<g id="edge92" class="edge">
<title>NewMexico&#45;&#45;Oklahoma</title>
<path fill="none" stroke="black" d="M297.41,-107.94C304.6,-116.97 313.35,-127.96 320.54,-136.98"/>
</g>
<!-- Texas -->
<g id="node15" class="node">
<title>Texas</title>
<ellipse fill="none" stroke="black" cx="361.21" cy="-92.63" rx="30.71" ry="18"/>
<text text-anchor="middle" x="361.21" y="-88.43" font-family="Times,serif" font-size="14.00">Texas</text>
</g>
<!-- NewMexico&#45;&#45;Texas -->
<g id="edge93" class="edge">
<title>NewMexico&#45;&#45;Texas</title>
<path fill="none" stroke="black" d="M337.47,-91.96C337.57,-91.97 337.67,-91.97 337.78,-91.97"/>
</g>
<!-- Wyoming -->
<g id="node19" class="node">
<title>Wyoming</title>
<ellipse fill="none" stroke="black" cx="195.55" cy="-192.1" rx="44.9" ry="18"/>
<text text-anchor="middle" x="195.55" y="-187.9" font-family="Times,serif" font-size="14.00">Wyoming</text>
</g>
<!-- Utah&#45;&#45;Wyoming -->
<g id="edge109" class="edge">
<title>Utah&#45;&#45;Wyoming</title>
<path fill="none" stroke="black" d="M196.8,-133.23C196.54,-145.53 196.2,-161.68 195.94,-173.95"/>
</g>
<!-- California&#45;&#45;Nevada -->
<g id="edge17" class="edge">
<title>California&#45;&#45;Nevada</title>
<path fill="none" stroke="black" d="M147.43,-36.12C146.57,-41.93 145.62,-48.37 144.77,-54.19"/>
</g>
<!-- California&#45;&#45;Oregon -->
<g id="edge16" class="edge">
<title>California&#45;&#45;Oregon</title>
<path fill="none" stroke="black" d="M132.91,-34.95C123.07,-44.66 110.8,-56.77 101.09,-66.35"/>
</g>
<!-- Colorado&#45;&#45;NewMexico -->
<g id="edge18" class="edge">
<title>Colorado&#45;&#45;NewMexico</title>
<path fill="none" stroke="black" d="M263.71,-125.21C266.83,-119.73 270.26,-113.7 273.37,-108.22"/>
</g>
<!-- Colorado&#45;&#45;Utah -->
<g id="edge20" class="edge">
<title>Colorado&#45;&#45;Utah</title>
<path fill="none" stroke="black" d="M225.72,-129.14C223.5,-128.03 221.28,-126.93 219.11,-125.85"/>
</g>
<!-- Colorado&#45;&#45;Oklahoma -->
<g id="edge19" class="edge">
<title>Colorado&#45;&#45;Oklahoma</title>
<path fill="none" stroke="black" d="M294.5,-148.79C294.66,-148.81 294.81,-148.84 294.97,-148.86"/>
</g>
<!-- Colorado&#45;&#45;Wyoming -->
<g id="edge21" class="edge">
<title>Colorado&#45;&#45;Wyoming</title>
<path fill="none" stroke="black" d="M234.27,-159.35C228.07,-164.59 221.2,-170.4 214.99,-175.66"/>
</g>
<!-- Kansas -->
<g id="node20" class="node">
<title>Kansas</title>
<ellipse fill="none" stroke="black" cx="309.05" cy="-191.42" rx="35.8" ry="18"/>
<text text-anchor="middle" x="309.05" y="-187.22" font-family="Times,serif" font-size="14.00">Kansas</text>
</g>
<!-- Colorado&#45;&#45;Kansas -->
<g id="edge22" class="edge">
<title>Colorado&#45;&#45;Kansas</title>
<path fill="none" stroke="black" d="M272.37,-159.39C278.4,-164.66 285.07,-170.48 291.04,-175.7"/>
</g>
<!-- Nebraska -->
<g id="node21" class="node">
<title>Nebraska</title>
<ellipse fill="none" stroke="black" cx="266.77" cy="-220.5" rx="43.5" ry="18"/>
<text text-anchor="middle" x="266.77" y="-216.3" font-family="Times,serif" font-size="14.00">Nebraska</text>
</g>
<!-- Colorado&#45;&#45;Nebraska -->
<g id="edge23" class="edge">
<title>Colorado&#45;&#45;Nebraska</title>
<path fill="none" stroke="black" d="M256.65,-160.97C258.77,-173.41 261.57,-189.89 263.69,-202.35"/>
</g>
<!-- Arkansas -->
<g id="node13" class="node">
<title>Arkansas</title>
<ellipse fill="none" stroke="black" cx="398.07" cy="-172.84" rx="43.03" ry="18"/>
<text text-anchor="middle" x="398.07" y="-168.64" font-family="Times,serif" font-size="14.00">Arkansas</text>
</g>
<!-- Arkansas&#45;&#45;Mississippi -->
<g id="edge14" class="edge">
<title>Arkansas&#45;&#45;Mississippi</title>
<path fill="none" stroke="black" d="M435.23,-163.71C435.33,-163.69 435.43,-163.67 435.53,-163.64"/>
</g>
<!-- Arkansas&#45;&#45;Tennessee -->
<g id="edge11" class="edge">
<title>Arkansas&#45;&#45;Tennessee</title>
<path fill="none" stroke="black" d="M410.59,-190.2C417.06,-199.16 424.92,-210.06 431.38,-219.02"/>
</g>
<!-- Arkansas&#45;&#45;Oklahoma -->
<g id="edge10" class="edge">
<title>Arkansas&#45;&#45;Oklahoma</title>
<path fill="none" stroke="black" d="M362.54,-162.57C362.43,-162.54 362.32,-162.51 362.2,-162.47"/>
</g>
<!-- Arkansas&#45;&#45;Texas -->
<g id="edge12" class="edge">
<title>Arkansas&#45;&#45;Texas</title>
<path fill="none" stroke="black" d="M389.89,-155.04C383.74,-141.66 375.36,-123.41 369.24,-110.11"/>
</g>
<!-- Louisiana -->
<g id="node16" class="node">
<title>Louisiana</title>
<ellipse fill="none" stroke="black" cx="425.7" cy="-93.11" rx="44.96" ry="18"/>
<text text-anchor="middle" x="425.7" y="-88.91" font-family="Times,serif" font-size="14.00">Louisiana</text>
</g>
<!-- Arkansas&#45;&#45;Louisiana -->
<g id="edge13" class="edge">
<title>Arkansas&#45;&#45;Louisiana</title>
<path fill="none" stroke="black" d="M404.34,-154.75C408.86,-141.7 414.94,-124.17 419.45,-111.13"/>
</g>
<!-- Missouri -->
<g id="node17" class="node">
<title>Missouri</title>
<ellipse fill="none" stroke="black" cx="356.33" cy="-239.57" rx="41.61" ry="18"/>
<text text-anchor="middle" x="356.33" y="-235.37" font-family="Times,serif" font-size="14.00">Missouri</text>
</g>
<!-- Arkansas&#45;&#45;Missouri -->
<g id="edge15" class="edge">
<title>Arkansas&#45;&#45;Missouri</title>
<path fill="none" stroke="black" d="M387.11,-190.37C381.02,-200.1 373.47,-212.17 367.37,-221.92"/>
</g>
<!-- Oklahoma&#45;&#45;Texas -->
<g id="edge104" class="edge">
<title>Oklahoma&#45;&#45;Texas</title>
<path fill="none" stroke="black" d="M342.19,-136.57C345.77,-128.3 350.01,-118.5 353.58,-110.26"/>
</g>
<!-- Louisiana&#45;&#45;Mississippi -->
<g id="edge63" class="edge">
<title>Louisiana&#45;&#45;Mississippi</title>
<path fill="none" stroke="black" d="M434.78,-110.81C439.39,-119.8 444.99,-130.71 449.63,-139.76"/>
</g>
<!-- Louisiana&#45;&#45;Texas -->
<g id="edge62" class="edge">
<title>Louisiana&#45;&#45;Texas</title>
<path fill="none" stroke="black" d="M380.56,-92.77C380.47,-92.77 380.39,-92.77 380.31,-92.77"/>
</g>
<!-- Missouri&#45;&#45;Tennessee -->
<g id="edge81" class="edge">
<title>Missouri&#45;&#45;Tennessee</title>
<path fill="none" stroke="black" d="M397.8,-238.04C397.89,-238.04 397.98,-238.04 398.07,-238.03"/>
</g>
<!-- Missouri&#45;&#45;Oklahoma -->
<g id="edge80" class="edge">
<title>Missouri&#45;&#45;Oklahoma</title>
<path fill="none" stroke="black" d="M351.69,-221.51C347.98,-207.07 342.8,-186.91 339.09,-172.47"/>
</g>
<!-- Missouri&#45;&#45;Nebraska -->
<g id="edge79" class="edge">
<title>Missouri&#45;&#45;Nebraska</title>
<path fill="none" stroke="black" d="M318.87,-231.59C314.46,-230.65 309.95,-229.69 305.53,-228.75"/>
</g>
<!-- Washington -->
<g id="node34" class="node">
<title>Washington</title>
<ellipse fill="none" stroke="black" cx="52.14" cy="-140.41" rx="52.28" ry="18"/>
<text text-anchor="middle" x="52.14" y="-136.21" font-family="Times,serif" font-size="14.00">Washington</text>
</g>
<!-- Oregon&#45;&#45;Washington -->
<g id="edge105" class="edge">
<title>Oregon&#45;&#45;Washington</title>
<path fill="none" stroke="black" d="M74.93,-99.89C70.89,-107.08 66.2,-115.42 62.13,-122.65"/>
</g>
<!-- Kansas&#45;&#45;Oklahoma -->
<g id="edge55" class="edge">
<title>Kansas&#45;&#45;Oklahoma</title>
<path fill="none" stroke="black" d="M320.86,-174.23C321.38,-173.48 321.9,-172.72 322.42,-171.97"/>
</g>
<!-- Kansas&#45;&#45;Missouri -->
<g id="edge56" class="edge">
<title>Kansas&#45;&#45;Missouri</title>
<path fill="none" stroke="black" d="M325.06,-207.72C329.88,-212.63 335.18,-218.02 340.02,-222.95"/>
</g>
<!-- Kansas&#45;&#45;Nebraska -->
<g id="edge54" class="edge">
<title>Kansas&#45;&#45;Nebraska</title>
<path fill="none" stroke="black" d="M287.91,-205.96C287.74,-206.07 287.58,-206.19 287.41,-206.3"/>
</g>
<!-- Nebraska&#45;&#45;Wyoming -->
<g id="edge86" class="edge">
<title>Nebraska&#45;&#45;Wyoming</title>
<path fill="none" stroke="black" d="M235.33,-207.96C232.79,-206.95 230.23,-205.93 227.69,-204.92"/>
</g>
<!-- SouthDakota -->
<g id="node43" class="node">
<title>SouthDakota</title>
<ellipse fill="none" stroke="black" cx="205.23" cy="-268.14" rx="56.07" ry="18"/>
<text text-anchor="middle" x="205.23" y="-263.94" font-family="Times,serif" font-size="14.00">SouthDakota</text>
</g>
<!-- Nebraska&#45;&#45;SouthDakota -->
<g id="edge85" class="edge">
<title>Nebraska&#45;&#45;SouthDakota</title>
<path fill="none" stroke="black" d="M245.94,-236.63C239.8,-241.38 233.07,-246.59 226.89,-251.38"/>
</g>
<!-- Connecticut -->
<g id="node22" class="node">
<title>Connecticut</title>
<ellipse fill="none" stroke="black" cx="422.59" cy="-620.57" rx="52.68" ry="18"/>
<text text-anchor="middle" x="422.59" y="-616.37" font-family="Times,serif" font-size="14.00">Connecticut</text>
</g>
<!-- NewYork -->
<g id="node23" class="node">
<title>NewYork</title>
<ellipse fill="none" stroke="black" cx="450.32" cy="-542.77" rx="44.2" ry="18"/>
<text text-anchor="middle" x="450.32" y="-538.57" font-family="Times,serif" font-size="14.00">NewYork</text>
</g>
<!-- Connecticut&#45;&#45;NewYork -->
<g id="edge24" class="edge">
<title>Connecticut&#45;&#45;NewYork</title>
<path fill="none" stroke="black" d="M429.02,-602.53C433.5,-589.96 439.45,-573.26 443.92,-560.71"/>
</g>
<!-- RhodeIsland -->
<g id="node24" class="node">
<title>RhodeIsland</title>
<ellipse fill="none" stroke="black" cx="393.08" cy="-598.17" rx="54.62" ry="18"/>
<text text-anchor="middle" x="393.08" y="-593.97" font-family="Times,serif" font-size="14.00">RhodeIsland</text>
</g>
<!-- Connecticut&#45;&#45;RhodeIsland -->
<g id="edge25" class="edge">
<title>Connecticut&#45;&#45;RhodeIsland</title>
<path fill="none" stroke="black" d="M400.83,-604.05C400.69,-603.95 400.55,-603.84 400.42,-603.74"/>
</g>
<!-- Massachusetts -->
<g id="node25" class="node">
<title>Massachusetts</title>
<ellipse fill="none" stroke="black" cx="472.75" cy="-614.04" rx="61.39" ry="18"/>
<text text-anchor="middle" x="472.75" y="-609.84" font-family="Times,serif" font-size="14.00">Massachusetts</text>
</g>
<!-- Connecticut&#45;&#45;Massachusetts -->
<g id="edge26" class="edge">
<title>Connecticut&#45;&#45;Massachusetts</title>
<path fill="none" stroke="black" d="M472.19,-614.12C472.37,-614.09 472.51,-614.08 472.61,-614.06"/>
</g>
<!-- NewYork&#45;&#45;RhodeIsland -->
<g id="edge96" class="edge">
<title>NewYork&#45;&#45;RhodeIsland</title>
<path fill="none" stroke="black" d="M433.15,-559.39C426.16,-566.14 418.09,-573.95 411.03,-580.79"/>
</g>
<!-- Pennsylvania -->
<g id="node28" class="node">
<title>Pennsylvania</title>
<ellipse fill="none" stroke="black" cx="452.32" cy="-454.46" rx="57.03" ry="18"/>
<text text-anchor="middle" x="452.32" y="-450.26" font-family="Times,serif" font-size="14.00">Pennsylvania</text>
</g>
<!-- NewYork&#45;&#45;Pennsylvania -->
<g id="edge95" class="edge">
<title>NewYork&#45;&#45;Pennsylvania</title>
<path fill="none" stroke="black" d="M450.74,-524.47C451.08,-509.31 451.56,-487.88 451.91,-472.73"/>
</g>
<!-- Vermont -->
<g id="node49" class="node">
<title>Vermont</title>
<ellipse fill="none" stroke="black" cx="527.61" cy="-591.64" rx="40.62" ry="18"/>
<text text-anchor="middle" x="527.61" y="-587.44" font-family="Times,serif" font-size="14.00">Vermont</text>
</g>
<!-- NewYork&#45;&#45;Vermont -->
<g id="edge97" class="edge">
<title>NewYork&#45;&#45;Vermont</title>
<path fill="none" stroke="black" d="M474.35,-557.96C483.84,-563.96 494.69,-570.83 504.12,-576.79"/>
</g>
<!-- Massachusetts&#45;&#45;NewYork -->
<g id="edge68" class="edge">
<title>Massachusetts&#45;&#45;NewYork</title>
<path fill="none" stroke="black" d="M467.09,-596.06C463.72,-585.34 459.45,-571.76 456.06,-561"/>
</g>
<!-- Massachusetts&#45;&#45;RhodeIsland -->
<g id="edge69" class="edge">
<title>Massachusetts&#45;&#45;RhodeIsland</title>
<path fill="none" stroke="black" d="M421.84,-603.9C421.72,-603.87 421.6,-603.85 421.47,-603.83"/>
</g>
<!-- NewHampshire -->
<g id="node48" class="node">
<title>NewHampshire</title>
<ellipse fill="none" stroke="black" cx="527.89" cy="-668.98" rx="65.71" ry="18"/>
<text text-anchor="middle" x="527.89" y="-664.78" font-family="Times,serif" font-size="14.00">NewHampshire</text>
</g>
<!-- Massachusetts&#45;&#45;NewHampshire -->
<g id="edge71" class="edge">
<title>Massachusetts&#45;&#45;NewHampshire</title>
<path fill="none" stroke="black" d="M490.2,-631.43C496.64,-637.84 503.93,-645.1 510.37,-651.52"/>
</g>
<!-- Massachusetts&#45;&#45;Vermont -->
<g id="edge70" class="edge">
<title>Massachusetts&#45;&#45;Vermont</title>
<path fill="none" stroke="black" d="M508.73,-599.35C508.89,-599.29 509.05,-599.22 509.21,-599.15"/>
</g>
<!-- Delaware -->
<g id="node26" class="node">
<title>Delaware</title>
<ellipse fill="none" stroke="black" cx="537.88" cy="-446.78" rx="43.96" ry="18"/>
<text text-anchor="middle" x="537.88" y="-442.58" font-family="Times,serif" font-size="14.00">Delaware</text>
</g>
<!-- NewJersey -->
<g id="node27" class="node">
<title>NewJersey</title>
<ellipse fill="none" stroke="black" cx="499.35" cy="-501.93" rx="48.81" ry="18"/>
<text text-anchor="middle" x="499.35" y="-497.73" font-family="Times,serif" font-size="14.00">NewJersey</text>
</g>
<!-- Delaware&#45;&#45;NewJersey -->
<g id="edge27" class="edge">
<title>Delaware&#45;&#45;NewJersey</title>
<path fill="none" stroke="black" d="M525.68,-464.23C521.19,-470.67 516.09,-477.96 511.59,-484.4"/>
</g>
<!-- Delaware&#45;&#45;Pennsylvania -->
<g id="edge28" class="edge">
<title>Delaware&#45;&#45;Pennsylvania</title>
<path fill="none" stroke="black" d="M494.85,-450.64C494.68,-450.66 494.51,-450.67 494.35,-450.69"/>
</g>
<!-- Maryland -->
<g id="node29" class="node">
<title>Maryland</title>
<ellipse fill="none" stroke="black" cx="509.84" cy="-389.57" rx="44.48" ry="18"/>
<text text-anchor="middle" x="509.84" y="-385.37" font-family="Times,serif" font-size="14.00">Maryland</text>
</g>
<!-- Delaware&#45;&#45;Maryland -->
<g id="edge29" class="edge">
<title>Delaware&#45;&#45;Maryland</title>
<path fill="none" stroke="black" d="M529.16,-428.99C525.81,-422.17 522,-414.39 518.65,-407.55"/>
</g>
<!-- NewJersey&#45;&#45;NewYork -->
<g id="edge91" class="edge">
<title>NewJersey&#45;&#45;NewYork</title>
<path fill="none" stroke="black" d="M479.41,-518.54C476.23,-521.19 472.94,-523.93 469.77,-526.57"/>
</g>
<!-- NewJersey&#45;&#45;Pennsylvania -->
<g id="edge90" class="edge">
<title>NewJersey&#45;&#45;Pennsylvania</title>
<path fill="none" stroke="black" d="M482.37,-484.79C478.16,-480.54 473.65,-475.98 469.43,-471.73"/>
</g>
<!-- WestVirginia -->
<g id="node46" class="node">
<title>WestVirginia</title>
<ellipse fill="none" stroke="black" cx="446.78" cy="-376.19" rx="56.22" ry="18"/>
<text text-anchor="middle" x="446.78" y="-371.99" font-family="Times,serif" font-size="14.00">WestVirginia</text>
</g>
<!-- Pennsylvania&#45;&#45;WestVirginia -->
<g id="edge106" class="edge">
<title>Pennsylvania&#45;&#45;WestVirginia</title>
<path fill="none" stroke="black" d="M451.03,-436.3C450.14,-423.66 448.95,-406.86 448.05,-394.24"/>
</g>
<!-- Maryland&#45;&#45;Pennsylvania -->
<g id="edge67" class="edge">
<title>Maryland&#45;&#45;Pennsylvania</title>
<path fill="none" stroke="black" d="M494.73,-406.62C486.47,-415.93 476.26,-427.45 467.93,-436.84"/>
</g>
<!-- Maryland&#45;&#45;Virginia -->
<g id="edge65" class="edge">
<title>Maryland&#45;&#45;Virginia</title>
<path fill="none" stroke="black" d="M502.37,-371.63C497.16,-359.13 490.25,-342.54 485.05,-330.06"/>
</g>
<!-- Maryland&#45;&#45;WestVirginia -->
<g id="edge66" class="edge">
<title>Maryland&#45;&#45;WestVirginia</title>
<path fill="none" stroke="black" d="M470.26,-381.17C470.16,-381.15 470.06,-381.13 469.96,-381.11"/>
</g>
<!-- NorthCarolina&#45;&#45;Tennessee -->
<g id="edge98" class="edge">
<title>NorthCarolina&#45;&#45;Tennessee</title>
<path fill="none" stroke="black" d="M479.94,-248.99C479.51,-248.84 479.08,-248.69 478.65,-248.54"/>
</g>
<!-- NorthCarolina&#45;&#45;SouthCarolina -->
<g id="edge100" class="edge">
<title>NorthCarolina&#45;&#45;SouthCarolina</title>
<path fill="none" stroke="black" d="M563.89,-250.22C564.04,-250.18 564.18,-250.14 564.33,-250.1"/>
</g>
<!-- NorthCarolina&#45;&#45;Virginia -->
<g id="edge99" class="edge">
<title>NorthCarolina&#45;&#45;Virginia</title>
<path fill="none" stroke="black" d="M504.64,-280.4C500.5,-285.28 496.01,-290.56 491.91,-295.4"/>
</g>
<!-- Hawaii -->
<g id="node32" class="node">
<title>Hawaii</title>
<ellipse fill="none" stroke="black" cx="260.64" cy="-603" rx="35.79" ry="18"/>
<text text-anchor="middle" x="260.64" y="-598.8" font-family="Times,serif" font-size="14.00">Hawaii</text>
</g>
<!-- Idaho -->
<g id="node33" class="node">
<title>Idaho</title>
<ellipse fill="none" stroke="black" cx="130.39" cy="-151.31" rx="30.49" ry="18"/>
<text text-anchor="middle" x="130.39" y="-147.11" font-family="Times,serif" font-size="14.00">Idaho</text>
</g>
<!-- Idaho&#45;&#45;Nevada -->
<g id="edge38" class="edge">
<title>Idaho&#45;&#45;Nevada</title>
<path fill="none" stroke="black" d="M133.1,-133.01C134.99,-120.26 137.5,-103.34 139.39,-90.61"/>
</g>
<!-- Idaho&#45;&#45;Utah -->
<g id="edge34" class="edge">
<title>Idaho&#45;&#45;Utah</title>
<path fill="none" stroke="black" d="M153.01,-139C160.43,-134.96 168.64,-130.49 175.95,-126.51"/>
</g>
<!-- Idaho&#45;&#45;Oregon -->
<g id="edge39" class="edge">
<title>Idaho&#45;&#45;Oregon</title>
<path fill="none" stroke="black" d="M119.1,-134.31C112.12,-123.8 103.19,-110.36 96.18,-99.8"/>
</g>
<!-- Idaho&#45;&#45;Wyoming -->
<g id="edge36" class="edge">
<title>Idaho&#45;&#45;Wyoming</title>
<path fill="none" stroke="black" d="M151.37,-164.44C157.62,-168.35 164.52,-172.68 170.98,-176.72"/>
</g>
<!-- Idaho&#45;&#45;Washington -->
<g id="edge35" class="edge">
<title>Idaho&#45;&#45;Washington</title>
<path fill="none" stroke="black" d="M100.81,-147.19C100.72,-147.18 100.63,-147.17 100.55,-147.15"/>
</g>
<!-- Montana -->
<g id="node35" class="node">
<title>Montana</title>
<ellipse fill="none" stroke="black" cx="135.56" cy="-234.59" rx="41.59" ry="18"/>
<text text-anchor="middle" x="135.56" y="-230.39" font-family="Times,serif" font-size="14.00">Montana</text>
</g>
<!-- Idaho&#45;&#45;Montana -->
<g id="edge37" class="edge">
<title>Idaho&#45;&#45;Montana</title>
<path fill="none" stroke="black" d="M131.51,-169.38C132.38,-183.35 133.58,-202.59 134.44,-216.55"/>
</g>
<!-- Montana&#45;&#45;Wyoming -->
<g id="edge83" class="edge">
<title>Montana&#45;&#45;Wyoming</title>
<path fill="none" stroke="black" d="M157.56,-219.01C162.64,-215.41 168.06,-211.58 173.16,-207.96"/>
</g>
<!-- Montana&#45;&#45;SouthDakota -->
<g id="edge82" class="edge">
<title>Montana&#45;&#45;SouthDakota</title>
<path fill="none" stroke="black" d="M163.5,-248.04C166.98,-249.72 170.56,-251.44 174.09,-253.14"/>
</g>
<!-- NorthDakota -->
<g id="node50" class="node">
<title>NorthDakota</title>
<ellipse fill="none" stroke="black" cx="152.7" cy="-315.35" rx="56.05" ry="18"/>
<text text-anchor="middle" x="152.7" y="-311.15" font-family="Times,serif" font-size="14.00">NorthDakota</text>
</g>
<!-- Montana&#45;&#45;NorthDakota -->
<g id="edge84" class="edge">
<title>Montana&#45;&#45;NorthDakota</title>
<path fill="none" stroke="black" d="M139.45,-252.92C142.28,-266.23 146.08,-284.15 148.89,-297.38"/>
</g>
<!-- Illinois -->
<g id="node36" class="node">
<title>Illinois</title>
<ellipse fill="none" stroke="black" cx="334.16" cy="-311.1" rx="35.33" ry="18"/>
<text text-anchor="middle" x="334.16" y="-306.9" font-family="Times,serif" font-size="14.00">Illinois</text>
</g>
<!-- Illinois&#45;&#45;Missouri -->
<g id="edge41" class="edge">
<title>Illinois&#45;&#45;Missouri</title>
<path fill="none" stroke="black" d="M339.76,-293.05C343.09,-282.29 347.31,-268.66 350.66,-257.86"/>
</g>
<!-- Kentucky -->
<g id="node37" class="node">
<title>Kentucky</title>
<ellipse fill="none" stroke="black" cx="405.17" cy="-306.05" rx="44.48" ry="18"/>
<text text-anchor="middle" x="405.17" y="-301.85" font-family="Times,serif" font-size="14.00">Kentucky</text>
</g>
<!-- Illinois&#45;&#45;Kentucky -->
<g id="edge40" class="edge">
<title>Illinois&#45;&#45;Kentucky</title>
<path fill="none" stroke="black" d="M369.25,-308.61C369.39,-308.6 369.53,-308.59 369.67,-308.58"/>
</g>
<!-- Wisconsin -->
<g id="node38" class="node">
<title>Wisconsin</title>
<ellipse fill="none" stroke="black" cx="270.01" cy="-356.89" rx="47.18" ry="18"/>
<text text-anchor="middle" x="270.01" y="-352.69" font-family="Times,serif" font-size="14.00">Wisconsin</text>
</g>
<!-- Illinois&#45;&#45;Wisconsin -->
<g id="edge42" class="edge">
<title>Illinois&#45;&#45;Wisconsin</title>
<path fill="none" stroke="black" d="M313.51,-325.84C306.77,-330.65 299.26,-336.02 292.4,-340.91"/>
</g>
<!-- Indiana -->
<g id="node39" class="node">
<title>Indiana</title>
<ellipse fill="none" stroke="black" cx="361.86" cy="-365.61" rx="36.75" ry="18"/>
<text text-anchor="middle" x="361.86" y="-361.41" font-family="Times,serif" font-size="14.00">Indiana</text>
</g>
<!-- Illinois&#45;&#45;Indiana -->
<g id="edge43" class="edge">
<title>Illinois&#45;&#45;Indiana</title>
<path fill="none" stroke="black" d="M343.08,-328.65C346.24,-334.87 349.8,-341.87 352.96,-348.1"/>
</g>
<!-- Iowa -->
<g id="node40" class="node">
<title>Iowa</title>
<ellipse fill="none" stroke="black" cx="279.95" cy="-278.89" rx="27.57" ry="18"/>
<text text-anchor="middle" x="279.95" y="-274.69" font-family="Times,serif" font-size="14.00">Iowa</text>
</g>
<!-- Illinois&#45;&#45;Iowa -->
<g id="edge44" class="edge">
<title>Illinois&#45;&#45;Iowa</title>
<path fill="none" stroke="black" d="M311.17,-297.44C307.71,-295.38 304.16,-293.27 300.74,-291.24"/>
</g>
<!-- Michigan -->
<g id="node41" class="node">
<title>Michigan</title>
<ellipse fill="none" stroke="black" cx="305.27" cy="-390.05" rx="44" ry="18"/>
<text text-anchor="middle" x="305.27" y="-385.85" font-family="Times,serif" font-size="14.00">Michigan</text>
</g>
<!-- Illinois&#45;&#45;Michigan -->
<g id="edge45" class="edge">
<title>Illinois&#45;&#45;Michigan</title>
<path fill="none" stroke="black" d="M327.61,-329.02C322.88,-341.94 316.52,-359.3 311.8,-372.21"/>
</g>
<!-- Kentucky&#45;&#45;Tennessee -->
<g id="edge57" class="edge">
<title>Kentucky&#45;&#45;Tennessee</title>
<path fill="none" stroke="black" d="M414.94,-288.47C420.77,-277.98 428.14,-264.7 433.98,-254.18"/>
</g>
<!-- Kentucky&#45;&#45;Missouri -->
<g id="edge60" class="edge">
<title>Kentucky&#45;&#45;Missouri</title>
<path fill="none" stroke="black" d="M392.34,-288.59C385.22,-278.89 376.39,-266.86 369.25,-257.15"/>
</g>
<!-- Ohio -->
<g id="node42" class="node">
<title>Ohio</title>
<ellipse fill="none" stroke="black" cx="391.56" cy="-399.14" rx="27.59" ry="18"/>
<text text-anchor="middle" x="391.56" y="-394.94" font-family="Times,serif" font-size="14.00">Ohio</text>
</g>
<!-- Kentucky&#45;&#45;Ohio -->
<g id="edge61" class="edge">
<title>Kentucky&#45;&#45;Ohio</title>
<path fill="none" stroke="black" d="M402.48,-324.44C400.08,-340.87 396.58,-364.79 394.2,-381.1"/>
</g>
<!-- Kentucky&#45;&#45;Virginia -->
<g id="edge58" class="edge">
<title>Kentucky&#45;&#45;Virginia</title>
<path fill="none" stroke="black" d="M448.99,-309.78C449.11,-309.79 449.22,-309.8 449.34,-309.81"/>
</g>
<!-- Kentucky&#45;&#45;WestVirginia -->
<g id="edge59" class="edge">
<title>Kentucky&#45;&#45;WestVirginia</title>
<path fill="none" stroke="black" d="M415.67,-323.75C421.93,-334.3 429.85,-347.66 436.14,-358.25"/>
</g>
<!-- Indiana&#45;&#45;Kentucky -->
<g id="edge48" class="edge">
<title>Indiana&#45;&#45;Kentucky</title>
<path fill="none" stroke="black" d="M374.39,-348.38C380.09,-340.55 386.81,-331.3 392.53,-323.45"/>
</g>
<!-- Indiana&#45;&#45;Michigan -->
<g id="edge46" class="edge">
<title>Indiana&#45;&#45;Michigan</title>
<path fill="none" stroke="black" d="M334.23,-377.54C334.12,-377.59 334.01,-377.64 333.89,-377.69"/>
</g>
<!-- Indiana&#45;&#45;Ohio -->
<g id="edge47" class="edge">
<title>Indiana&#45;&#45;Ohio</title>
<path fill="none" stroke="black" d="M376.71,-382.37C376.94,-382.64 377.18,-382.9 377.41,-383.16"/>
</g>
<!-- Iowa&#45;&#45;Missouri -->
<g id="edge53" class="edge">
<title>Iowa&#45;&#45;Missouri</title>
<path fill="none" stroke="black" d="M302.05,-267.51C310.59,-263.11 320.46,-258.03 329.41,-253.42"/>
</g>
<!-- Iowa&#45;&#45;Nebraska -->
<g id="edge49" class="edge">
<title>Iowa&#45;&#45;Nebraska</title>
<path fill="none" stroke="black" d="M275.93,-261.05C274.32,-253.94 272.48,-245.77 270.87,-238.63"/>
</g>
<!-- Iowa&#45;&#45;Wisconsin -->
<g id="edge51" class="edge">
<title>Iowa&#45;&#45;Wisconsin</title>
<path fill="none" stroke="black" d="M277.65,-296.98C276.04,-309.58 273.91,-326.32 272.31,-338.9"/>
</g>
<!-- Iowa&#45;&#45;SouthDakota -->
<g id="edge50" class="edge">
<title>Iowa&#45;&#45;SouthDakota</title>
<path fill="none" stroke="black" d="M252.56,-274.95C252.47,-274.93 252.39,-274.92 252.31,-274.91"/>
</g>
<!-- Minnesota -->
<g id="node44" class="node">
<title>Minnesota</title>
<ellipse fill="none" stroke="black" cx="228.32" cy="-340.19" rx="47.38" ry="18"/>
<text text-anchor="middle" x="228.32" y="-335.99" font-family="Times,serif" font-size="14.00">Minnesota</text>
</g>
<!-- Iowa&#45;&#45;Minnesota -->
<g id="edge52" class="edge">
<title>Iowa&#45;&#45;Minnesota</title>
<path fill="none" stroke="black" d="M266.39,-294.99C259.22,-303.51 250.41,-313.97 243.07,-322.68"/>
</g>
<!-- Michigan&#45;&#45;Wisconsin -->
<g id="edge73" class="edge">
<title>Michigan&#45;&#45;Wisconsin</title>
<path fill="none" stroke="black" d="M287.64,-373.47C287.5,-373.34 287.37,-373.21 287.23,-373.08"/>
</g>
<!-- Michigan&#45;&#45;Ohio -->
<g id="edge72" class="edge">
<title>Michigan&#45;&#45;Ohio</title>
<path fill="none" stroke="black" d="M347.91,-394.54C353.34,-395.11 358.79,-395.69 363.9,-396.22"/>
</g>
<!-- Michigan&#45;&#45;Minnesota -->
<g id="edge74" class="edge">
<title>Michigan&#45;&#45;Minnesota</title>
<path fill="none" stroke="black" d="M281.77,-374.82C272.48,-368.8 261.83,-361.9 252.48,-355.84"/>
</g>
<!-- Ohio&#45;&#45;Pennsylvania -->
<g id="edge102" class="edge">
<title>Ohio&#45;&#45;Pennsylvania</title>
<path fill="none" stroke="black" d="M407.84,-413.96C415.72,-421.13 425.21,-429.78 433.41,-437.24"/>
</g>
<!-- Ohio&#45;&#45;WestVirginia -->
<g id="edge103" class="edge">
<title>Ohio&#45;&#45;WestVirginia</title>
<path fill="none" stroke="black" d="M414.98,-389.4C415.09,-389.36 415.21,-389.31 415.33,-389.26"/>
</g>
<!-- SouthDakota&#45;&#45;Wyoming -->
<g id="edge107" class="edge">
<title>SouthDakota&#45;&#45;Wyoming</title>
<path fill="none" stroke="black" d="M202.94,-250.12C201.41,-238.09 199.4,-222.32 197.86,-210.26"/>
</g>
<!-- Minnesota&#45;&#45;Wisconsin -->
<g id="edge77" class="edge">
<title>Minnesota&#45;&#45;Wisconsin</title>
<path fill="none" stroke="black" d="M261.17,-353.35C261.33,-353.41 261.49,-353.48 261.65,-353.54"/>
</g>
<!-- Minnesota&#45;&#45;SouthDakota -->
<g id="edge76" class="edge">
<title>Minnesota&#45;&#45;SouthDakota</title>
<path fill="none" stroke="black" d="M222.5,-322.01C218.97,-311 214.49,-297.02 210.98,-286.06"/>
</g>
<!-- Minnesota&#45;&#45;NorthDakota -->
<g id="edge75" class="edge">
<title>Minnesota&#45;&#45;NorthDakota</title>
<path fill="none" stroke="black" d="M192.28,-328.35C192.13,-328.3 191.98,-328.25 191.83,-328.2"/>
</g>
<!-- Virginia&#45;&#45;WestVirginia -->
<g id="edge110" class="edge">
<title>Virginia&#45;&#45;WestVirginia</title>
<path fill="none" stroke="black" d="M469.03,-330.04C464.82,-338.76 459.76,-349.25 455.53,-358.02"/>
</g>
<!-- Maine -->
<g id="node47" class="node">
<title>Maine</title>
<ellipse fill="none" stroke="black" cx="562.89" cy="-734.97" rx="32.9" ry="18"/>
<text text-anchor="middle" x="562.89" y="-730.77" font-family="Times,serif" font-size="14.00">Maine</text>
</g>
<!-- Maine&#45;&#45;NewHampshire -->
<g id="edge64" class="edge">
<title>Maine&#45;&#45;NewHampshire</title>
<path fill="none" stroke="black" d="M553.7,-717.63C548.67,-708.16 542.46,-696.45 537.39,-686.89"/>
</g>
<!-- NewHampshire&#45;&#45;Vermont -->
<g id="edge89" class="edge">
<title>NewHampshire&#45;&#45;Vermont</title>
<path fill="none" stroke="black" d="M527.83,-650.65C527.78,-638.33 527.72,-622.14 527.68,-609.84"/>
</g>
<!-- NorthDakota&#45;&#45;SouthDakota -->
<g id="edge101" class="edge">
<title>NorthDakota&#45;&#45;SouthDakota</title>
<path fill="none" stroke="black" d="M171.67,-298.31C176.37,-294.08 181.41,-289.55 186.12,-285.32"/>
</g>
</g>
</svg>
